name ./resultDataOpenSim/trcMotMarkerGrf/sub06/grf-12-03.mot
datacolumns 19
datarows 30
range 0.52000000 0.63600000
endheader

                time	     ground_force_vx	     ground_force_vy	     ground_force_vz	     ground_force_px	     ground_force_py	     ground_force_pz	   l_ground_force_vx	   l_ground_force_vy	   l_ground_force_vz	   l_ground_force_px	   l_ground_force_py	   l_ground_force_pz	     ground_torque_x	     ground_torque_y	     ground_torque_z	   l_ground_torque_x	   l_ground_torque_y	   l_ground_torque_z	
          0.52000000	        191.21642503	        802.79019356	        -32.06207426	         -0.77905207	          0.00000000	          0.07552306	          0.00000000	          0.00000000	          0.00000000	          0.00000000	          0.00000000	          0.00000000	          0.00000000	          1.20353192	          0.00000000	          0.00000000	          0.00000000	          0.00000000	
          0.52400000	        198.07089659	        803.46666394	        -31.69681054	         -0.77818421	          0.00000000	          0.07523044	          0.00000000	          0.00000000	          0.00000000	          0.00000000	          0.00000000	          0.00000000	          0.00000000	          1.16223314	          0.00000000	          0.00000000	          0.00000000	          0.00000000	
          0.52800000	        204.84333563	        802.44479564	        -31.22575113	         -0.77746728	          0.00000000	          0.07484968	          0.00000000	          0.00000000	          0.00000000	          0.00000000	          0.00000000	          0.00000000	          0.00000000	          1.10024623	          0.00000000	          0.00000000	          0.00000000	          0.00000000	
          0.53200000	        211.58746771	        799.48186919	        -30.61296770	         -0.77689409	          0.00000000	          0.07441958	          0.00000000	          0.00000000	          0.00000000	          0.00000000	          0.00000000	          0.00000000	          0.00000000	          1.02069468	          0.00000000	          0.00000000	          0.00000000	          0.00000000	
          0.53600000	        218.23343753	        794.05519256	        -29.76421167	         -0.77629918	          0.00000000	          0.07401373	          0.00000000	          0.00000000	          0.00000000	          0.00000000	          0.00000000	          0.00000000	          0.00000000	          0.92854486	          0.00000000	          0.00000000	          0.00000000	          0.00000000	
          0.54000000	        224.66886013	        785.92764720	        -28.57274194	         -0.77557499	          0.00000000	          0.07365800	          0.00000000	          0.00000000	          0.00000000	          0.00000000	          0.00000000	          0.00000000	          0.00000000	          0.82943010	          0.00000000	          0.00000000	          0.00000000	          0.00000000	
          0.54400000	        230.87337222	        775.36625210	        -26.97855400	         -0.77482068	          0.00000000	          0.07330959	          0.00000000	          0.00000000	          0.00000000	          0.00000000	          0.00000000	          0.00000000	          0.00000000	          0.72819810	          0.00000000	          0.00000000	          0.00000000	          0.00000000	
          0.54800000	        236.90100322	        762.78805920	        -24.98145660	         -0.77423610	          0.00000000	          0.07291035	          0.00000000	          0.00000000	          0.00000000	          0.00000000	          0.00000000	          0.00000000	          0.00000000	          0.62724253	          0.00000000	          0.00000000	          0.00000000	          0.00000000	
          0.55200000	        242.72836412	        748.26318258	        -22.62732470	         -0.77390087	          0.00000000	          0.07245335	          0.00000000	          0.00000000	          0.00000000	          0.00000000	          0.00000000	          0.00000000	          0.00000000	          0.52534583	          0.00000000	          0.00000000	          0.00000000	          0.00000000	
          0.55600000	        248.17621474	        731.41689503	        -19.99743594	         -0.77369997	          0.00000000	          0.07199309	          0.00000000	          0.00000000	          0.00000000	          0.00000000	          0.00000000	          0.00000000	          0.00000000	          0.41782958	          0.00000000	          0.00000000	          0.00000000	          0.00000000	
          0.56000000	        252.99232185	        711.79765093	        -17.19860690	         -0.77347423	          0.00000000	          0.07158639	          0.00000000	          0.00000000	          0.00000000	          0.00000000	          0.00000000	          0.00000000	          0.00000000	          0.29807087	          0.00000000	          0.00000000	          0.00000000	          0.00000000	
          0.56400000	        256.96442100	        689.25191703	        -14.34798891	         -0.77322121	          0.00000000	          0.07122785	          0.00000000	          0.00000000	          0.00000000	          0.00000000	          0.00000000	          0.00000000	          0.00000000	          0.15963335	          0.00000000	          0.00000000	          0.00000000	          0.00000000	
          0.56800000	        259.90489603	        663.86492898	        -11.55213012	         -0.77310640	          0.00000000	          0.07085752	        -13.22159587	         80.04391113	         -6.84274859	         -0.09444083	         -0.02501745	         -0.02737834	          0.00000000	         -0.00179100	          0.00000000	          0.00000000	         -0.30056583	          0.00000000	
          0.57200000	        261.52048616	        635.56299894	         -8.88170983	         -0.77326511	          0.00000000	          0.07043429	         -7.75448940	        198.24788639	         -2.52383490	         -0.09265808	         -0.02502765	         -0.03014441	          0.00000000	         -0.18679643	          0.00000000	          0.00000000	         -0.75076382	          0.00000000	
          0.57600000	        261.31765885	        603.86725735	         -6.35791220	         -0.77363178	          0.00000000	          0.06998879	         -8.80978249	        309.94575230	          1.81533899	         -0.09012763	         -0.02501349	         -0.03158209	          0.00000000	         -0.39073343	          0.00000000	          0.00000000	         -1.19157775	          0.00000000	
          0.58000000	        258.63976343	        568.12972816	         -3.97178258	         -0.77396611	          0.00000000	          0.06960737	        -20.80391778	        409.27575210	          6.13181178	         -0.08628934	         -0.02502387	         -0.03233646	          0.00000000	         -0.60223420	          0.00000000	          0.00000000	         -1.60070699	          0.00000000	
          0.58400000	        252.81662284	        528.06244629	         -1.71858508	         -0.77403360	          0.00000000	          0.06935987	        -45.27720851	        493.18584370	         10.35234854	         -0.08147775	         -0.02503517	         -0.03276675	          0.00000000	         -0.80253080	          0.00000000	          0.00000000	         -1.94213120	          0.00000000	
          0.58800000	        243.35208997	        484.02864708	          0.39789741	         -0.77378346	          0.00000000	          0.06924294	        -79.69510663	        561.52390429	         14.12800351	         -0.07631145	         -0.02501735	         -0.03311113	          0.00000000	         -0.96663077	          0.00000000	          0.00000000	         -2.17164034	          0.00000000	
          0.59200000	        230.02604572	        436.88597916	          2.38651770	         -0.77330221	          0.00000000	          0.06921774	       -117.82702884	        615.47309146	         16.65633340	         -0.07122080	         -0.02499546	         -0.03340585	          0.00000000	         -1.06688173	          0.00000000	          0.00000000	         -2.24845812	          0.00000000	
          0.59600000	        212.86687726	        387.76621260	          4.26952168	         -0.77252767	          0.00000000	          0.06929312	       -152.20997205	        656.17445306	         16.94851678	         -0.06642396	         -0.02499521	         -0.03351726	          0.00000000	         -1.07852385	          0.00000000	          0.00000000	         -2.14918376	          0.00000000	
          0.60000000	        192.17664898	        338.10088636	          6.04758536	         -0.77115629	          0.00000000	          0.06948645	       -177.53803554	        684.59408969	         14.49870555	         -0.06205676	         -0.02500017	         -0.03336055	          0.00000000	         -0.98624232	          0.00000000	          0.00000000	         -1.87917170	          0.00000000	
          0.60400000	        168.69989031	        289.63039357	          7.65461455	         -0.76888350	          0.00000000	          0.06973229	       -192.96405612	        702.39126811	          9.69073858	         -0.05808724	         -0.02500289	         -0.03300001	          0.00000000	         -0.79035067	          0.00000000	          0.00000000	         -1.47666547	          0.00000000	
          0.60800000	        143.66862946	        244.07670087	          8.95781725	         -0.76592917	          0.00000000	          0.06988065	       -201.94793430	        712.87563962	          3.56925987	         -0.05421738	         -0.02500208	         -0.03256379	          0.00000000	         -0.51061263	          0.00000000	          0.00000000	         -1.00693560	          0.00000000	
          0.61200000	        118.54071379	        202.62385602	          9.82159938	         -0.76278432	          0.00000000	          0.06977164	       -209.85048660	        720.99635332	         -2.59514376	         -0.05014961	         -0.02500347	         -0.03216002	          0.00000000	         -0.18556533	          0.00000000	          0.00000000	         -0.54713816	          0.00000000	
          0.61600000	         94.67015597	        165.60131702	         10.15077935	         -0.75970305	          0.00000000	          0.06934002	       -220.79662017	        732.05837255	         -7.55326368	         -0.04583079	         -0.02500325	         -0.03188534	          0.00000000	          0.13358706	          0.00000000	          0.00000000	         -0.16683496	          0.00000000	
          0.62000000	         73.16278401	        132.62466568	          9.86612630	         -0.75644901	          0.00000000	          0.06874029	       -235.72066264	        749.93719884	        -10.24678058	         -0.04150653	         -0.02499743	         -0.03176194	          0.00000000	          0.39341613	          0.00000000	          0.00000000	          0.08815211	          0.00000000	
          0.62400000	         54.82838450	        103.10921485	          8.88888094	         -0.75263505	          0.00000000	          0.06832255	       -252.61428405	        776.05110167	        -10.02765056	         -0.03756398	         -0.02499537	         -0.03174467	          0.00000000	          0.55022786	          0.00000000	          0.00000000	          0.20242678	          0.00000000	
          0.62800000	         40.07060441	         76.72500355	          7.18303285	         -0.74843248	          0.00000000	          0.06845414	       -268.30776621	        809.80569882	         -6.84113800	         -0.03429437	         -0.02499889	         -0.03178880	          0.00000000	          0.58002224	          0.00000000	          0.00000000	          0.18734697	          0.00000000	
          0.63200000	         28.78322412	         53.38907509	          4.81283493	         -0.74503433	          0.00000000	          0.06943969	       -280.30328363	        849.82637300	         -1.25912291	         -0.03180952	         -0.02500181	         -0.03187370	          0.00000000	          0.48358531	          0.00000000	          0.00000000	          0.07080977	          0.00000000	
          0.63600000	         20.39071974	         32.90593890	          1.96093908	         -0.74456498	          0.00000000	          0.07177570	       -287.70045782	        894.60438650	          5.65225858	         -0.03008543	         -0.02500154	         -0.03198572	          0.00000000	          0.28547321	          0.00000000	          0.00000000	         -0.11425589	          0.00000000	
